<svg viewBox="0 0 64 64" xmlns="http://www.w3.org/2000/svg">
  <defs>
    <linearGradient id="logoGradient" x1="0%" y1="0%" x2="100%" y2="100%">
      <stop offset="0%" style="stop-color:#2563eb;stop-opacity:1" />
      <stop offset="100%" style="stop-color:#7c3aed;stop-opacity:1" />
    </linearGradient>
  </defs>
  
  <!-- 背景円 -->
  <circle cx="32" cy="32" r="30" fill="url(#logoGradient)" stroke="#1e40af" stroke-width="2"/>
  
  <!-- 税理士を表すアイコン - 計算機とドキュメント -->
  <g fill="white">
    <!-- ドキュメント -->
    <rect x="18" y="20" width="16" height="20" rx="2" opacity="0.9"/>
    <rect x="40" y="22" width="12" height="16" rx="1" opacity="0.8"/>
    
    <!-- 計算機のボタン -->
    <circle cx="22" cy="24" r="1.5"/>
    <circle cx="26" cy="24" r="1.5"/>
    <circle cx="30" cy="24" r="1.5"/>
    <circle cx="22" cy="28" r="1.5"/>
    <circle cx="26" cy="28" r="1.5"/>
    <circle cx="30" cy="28" r="1.5"/>
    <circle cx="22" cy="32" r="1.5"/>
    <circle cx="26" cy="32" r="1.5"/>
    <circle cx="30" cy="32" r="1.5"/>
    
    <!-- S のイニシャル -->
    <path d="M42 26 Q44 24 46 26 Q48 28 46 30 Q44 32 46 34 Q48 36 46 38" 
          stroke="white" stroke-width="2" fill="none" opacity="0.9"/>
  </g>
</svg> 