<svg width="500" height="500" viewBox="0 0 500 500" xmlns="http://www.w3.org/2000/svg">
  <!-- 白い背景 -->
  <rect width="500" height="500" fill="white"/>
  
  <!-- 太陽の放射線 -->
  <g stroke="#d1d5db" stroke-width="2" stroke-linecap="round" opacity="0.8">
    <!-- 上方向 -->
    <line x1="250" y1="50" x2="250" y2="100"/>
    <line x1="275" y1="55" x2="270" y2="105"/>
    <line x1="299" y1="65" x2="288" y2="112"/>
    <line x1="320" y1="80" x2="304" y2="122"/>
    <line x1="338" y1="98" x2="318" y2="134"/>
    <line x1="353" y1="119" x2="330" y2="148"/>
    <line x1="365" y1="142" x2="340" y2="164"/>
    <line x1="374" y1="167" x2="348" y2="182"/>
    
    <!-- 右方向 -->
    <line x1="380" y1="193" x2="352" y2="202"/>
    <line x1="384" y1="220" x2="354" y2="223"/>
    <line x1="386" y1="247" x2="356" y2="245"/>
    <line x1="385" y1="275" x2="355" y2="268"/>
    <line x1="382" y1="302" x2="352" y2="291"/>
    <line x1="376" y1="328" x2="348" y2="314"/>
    <line x1="368" y1="353" x2="342" y2="336"/>
    <line x1="357" y1="377" x2="334" y2="357"/>
    
    <!-- 下方向 -->}
    <line x1="343" y1="399" x2="324" y2="377"/>
    <line x1="327" y1="419" x2="312" y2="396"/>
    <line x1="309" y1="437" x2="298" y2="413"/>
    <line x1="289" y1="453" x2="282" y2="429"/>
    <line x1="267" y1="467" x2="264" y2="443"/>
    <line x1="244" y1="479" x2="245" y2="455"/>
    <line x1="220" y1="488" x2="225" y2="465"/>
    <line x1="195" y1="495" x2="204" y2="473"/>
    
    <!-- 左方向 -->
    <line x1="170" y1="500" x2="182" y2="480"/>
    <line x1="145" y1="502" x2="160" y2="485"/>
    <line x1="120" y1="502" x2="138" y2="488"/>
    <line x1="96" y1="500" x2="116" y2="490"/>
    <line x1="73" y1="496" x2="95" y2="490"/>
    <line x1="51" y1="490" x2="75" y2="488"/>
    <line x1="30" y1="482" x2="56" y2="485"/>
    <line x1="11" y1="472" x2="38" y2="480"/>
    
    <!-- 上左方向 -->
    <line x1="5" y1="447" x2="22" y2="473"/>
    <line x1="2" y1="420" x2="8" y2="465"/>
    <line x1="2" y1="393" x2="16" y2="455"/>
    <line x1="5" y1="366" x2="26" y2="443"/>
    <line x1="11" y1="340" x2="38" y2="430"/>
    <line x1="20" y1="315" x2="51" y2="415"/>
    <line x1="32" y1="292" x2="66" y2="398"/>
    <line x1="46" y1="270" x2="82" y2="380"/>
    
    <!-- 継続的な放射線パターン -->
    <line x1="62" y1="250" x2="99" y2="360"/>
    <line x1="80" y1="231" x2="117" y2="339"/>
    <line x1="100" y1="214" x2="136" y2="317"/>
    <line x1="122" y1="199" x2="156" y2="294"/>
    <line x1="146" y1="186" x2="177" y2="270"/>
    <line x1="171" y1="175" x2="198" y2="245"/>
    <line x1="197" y1="166" x2="220" y2="219"/>
    <line x1="224" y1="159" x2="242" y2="192"/>
  </g>
  
  <!-- 中央の円 -->
  <circle cx="250" cy="250" r="80" fill="#f8f9fa" stroke="#e9ecef" stroke-width="3"/>
  
  <!-- 水面の波線 -->
  <g stroke="#93c5fd" stroke-width="3" fill="none" opacity="0.8">
    <path d="M150 350 Q175 345 200 350 Q225 355 250 350 Q275 345 300 350 Q325 355 350 350"/>
    <path d="M160 370 Q185 365 210 370 Q235 375 260 370 Q285 365 310 370 Q335 375 340 370"/>
    <path d="M170 390 Q195 385 220 390 Q245 395 270 390 Q295 385 320 390"/>
    <path d="M180 410 Q205 405 230 410 Q255 415 280 410 Q305 405 310 410"/>
  </g>
  
  <!-- SOLVISテキスト -->
  <text x="250" y="255" text-anchor="middle" dominant-baseline="middle" fill="#64748b" font-size="32" font-weight="bold" letter-spacing="3" font-family="Arial, sans-serif">
    SOLVIS
  </text>
</svg> 