<svg width="300" height="300" viewBox="0 0 300 300" xmlns="http://www.w3.org/2000/svg">
  <!-- 透過背景（背景なし） -->
  
  <defs>
    <!-- グラデーション定義 -->
    <radialGradient id="sunGradient" cx="50%" cy="45%" r="30%">
      <stop offset="0%" style="stop-color:#f8f9fa;stop-opacity:0.9" />
      <stop offset="70%" style="stop-color:#e9ecef;stop-opacity:0.7" />
      <stop offset="100%" style="stop-color:#dee2e6;stop-opacity:0.5" />
    </radialGradient>
    
    <!-- 水の波のグラデーション -->
    <linearGradient id="waveGradient" x1="0%" y1="0%" x2="0%" y2="100%">
      <stop offset="0%" style="stop-color:#93c5fd;stop-opacity:0.8" />
      <stop offset="50%" style="stop-color:#60a5fa;stop-opacity:0.6" />
      <stop offset="100%" style="stop-color:#3b82f6;stop-opacity:0.4" />
    </linearGradient>
  </defs>
  
  <!-- 太陽の放射線（添付画像と同じパターン） -->
  <g stroke="#d1d5db" strokeWidth="0.8" strokeLinecap="round" opacity="0.6">
    <!-- 上方向の放射線 -->
    <line x1="150" y1="20" x2="150" y2="65" />
    <line x1="168" y1="22" x2="163" y2="67" />
    <line x1="185" y1="28" x2="175" y2="71" />
    <line x1="201" y1="36" x2="186" y2="76" />
    <line x1="216" y1="46" x2="196" y2="82" />
    <line x1="229" y1="58" x2="205" y2="89" />
    <line x1="240" y1="72" x2="213" y2="97" />
    <line x1="249" y1="87" x2="220" y2="106" />
    
    <!-- 右方向の放射線 -->
    <line x1="256" y1="103" x2="226" y2="115" />
    <line x1="261" y1="120" x2="231" y2="125" />
    <line x1="264" y1="138" x2="234" y2="135" />
    <line x1="265" y1="156" x2="235" y2="145" />
    <line x1="264" y1="174" x2="234" y2="155" />
    <line x1="261" y1="192" x2="231" y2="165" />
    <line x1="256" y1="209" x2="226" y2="175" />
    <line x1="249" y1="225" x2="220" y2="184" />
    
    <!-- 下方向の放射線 -->
    <line x1="240" y1="240" x2="213" y2="193" />
    <line x1="229" y1="254" x2="205" y2="201" />
    <line x1="216" y1="266" x2="196" y2="208" />
    <line x1="201" y1="276" x2="186" y2="214" />
    <line x1="185" y1="284" x2="175" y2="219" />
    <line x1="168" y1="290" x2="163" y2="223" />
    <line x1="150" y1="295" x2="150" y2="225" />
    <line x1="132" y1="290" x2="137" y2="223" />
    
    <!-- 左方向の放射線 -->
    <line x1="115" y1="284" x2="125" y2="219" />
    <line x1="99" y1="276" x2="114" y2="214" />
    <line x1="84" y1="266" x2="104" y2="208" />
    <line x1="71" y1="254" x2="95" y2="201" />
    <line x1="60" y1="240" x2="87" y2="193" />
    <line x1="51" y1="225" x2="80" y2="184" />
    <line x1="44" y1="209" x2="74" y2="175" />
    <line x1="39" y1="192" x2="69" y2="165" />
    
    <!-- 左上方向の放射線 -->
    <line x1="36" y1="174" x2="66" y2="155" />
    <line x1="35" y1="156" x2="65" y2="145" />
    <line x1="36" y1="138" x2="66" y2="135" />
    <line x1="39" y1="120" x2="69" y2="125" />
    <line x1="44" y1="103" x2="74" y2="115" />
    <line x1="51" y1="87" x2="80" y2="106" />
    <line x1="60" y1="72" x2="87" y2="97" />
    <line x1="71" y1="58" x2="95" y2="89" />
    <line x1="84" y1="46" x2="104" y2="82" />
    <line x1="99" y1="36" x2="114" y2="76" />
    <line x1="115" y1="28" x2="125" y2="71" />
    <line x1="132" y1="22" x2="137" y2="67" />
  </g>
  
  <!-- 中央の太陽ディスク -->
  <circle cx="150" cy="145" r="35" fill="url(#sunGradient)" stroke="#e9ecef" strokeWidth="1" opacity="0.8"/>
  
  <!-- 水面の波線（添付画像の下部と同じ） -->
  <g stroke="url(#waveGradient)" strokeWidth="1.5" fill="none" opacity="0.8">
    <path d="M60 220 Q80 217 100 220 Q120 223 140 220 Q160 217 180 220 Q200 223 220 220 Q240 217 240 220"/>
    <path d="M65 230 Q85 227 105 230 Q125 233 145 230 Q165 227 185 230 Q205 233 225 230 Q235 227 235 230"/>
    <path d="M70 240 Q90 237 110 240 Q130 243 150 240 Q170 237 190 240 Q210 243 230 240"/>
    <path d="M75 250 Q95 247 115 250 Q135 253 155 250 Q175 247 195 250 Q215 253 225 250"/>
    <path d="M80 260 Q100 257 120 260 Q140 263 160 260 Q180 257 200 260 Q220 263 220 260"/>
  </g>
  
  <!-- SOLVISテキスト（添付画像と同じ位置） -->
  <text x="150" y="150" textAnchor="middle" dominantBaseline="middle" 
        fill="#6b7280" fontSize="16" fontWeight="bold" letterSpacing="1.5" 
        fontFamily="Arial, sans-serif" opacity="0.9">
    SOLVIS
  </text>
</svg> 