<svg viewBox="0 0 100 100" xmlns="http://www.w3.org/2000/svg">
  <defs>
    <linearGradient id="logoGradient" x1="0%" y1="0%" x2="100%" y2="100%">
      <stop offset="0%" style="stop-color:#3b82f6;stop-opacity:1" />
      <stop offset="50%" style="stop-color:#60a5fa;stop-opacity:1" />
      <stop offset="100%" style="stop-color:#93c5fd;stop-opacity:1" />
    </linearGradient>
  </defs>
  
  <!-- 太陽の放射線 -->
  <g stroke="#3b82f6" stroke-width="2" stroke-linecap="round">
    <!-- 主要な放射線 -->
    <line x1="50" y1="5" x2="50" y2="20" />
    <line x1="50" y1="80" x2="50" y2="95" />
    <line x1="5" y1="50" x2="20" y2="50" />
    <line x1="80" y1="50" x2="95" y2="50" />
    
    <!-- 斜めの放射線 -->
    <line x1="21.7" y1="21.7" x2="32.3" y2="32.3" />
    <line x1="67.7" y1="67.7" x2="78.3" y2="78.3" />
    <line x1="78.3" y1="21.7" x2="67.7" y2="32.3" />
    <line x1="32.3" y1="67.7" x2="21.7" y2="78.3" />
    
    <!-- 中間の放射線 -->
    <line x1="38.4" y1="11.6" x2="42.3" y2="21.8" />
    <line x1="61.6" y1="11.6" x2="57.7" y2="21.8" />
    <line x1="38.4" y1="88.4" x2="42.3" y2="78.2" />
    <line x1="61.6" y1="88.4" x2="57.7" y2="78.2" />
    <line x1="11.6" y1="38.4" x2="21.8" y2="42.3" />
    <line x1="11.6" y1="61.6" x2="21.8" y2="57.7" />
    <line x1="88.4" y1="38.4" x2="78.2" y2="42.3" />
    <line x1="88.4" y1="61.6" x2="78.2" y2="57.7" />
  </g>
  
  <!-- 中央の太陽ディスク -->
  <circle 
    cx="50" 
    cy="50" 
    r="22" 
    fill="url(#logoGradient)" 
    stroke="#1e40af" 
    stroke-width="1"
  />
  
  <!-- 水面の波線 -->
  <g stroke="#93c5fd" stroke-width="1.5" fill="none" opacity="0.8">
    <path d="M32 55 Q37 52 42 55 Q47 58 52 55 Q57 52 62 55 Q67 58 68 55"/>
    <path d="M34 60 Q39 57 44 60 Q49 63 54 60 Q59 57 64 60 Q66 62 66 60"/>
    <path d="M36 65 Q41 62 46 65 Q51 68 56 65 Q61 62 64 65"/>
  </g>
  
  <!-- SOLVIS テキスト -->
  <text 
    x="50" 
    y="50" 
    text-anchor="middle" 
    dominant-baseline="middle" 
    fill="white"
    font-size="12"
    font-weight="bold"
    letter-spacing="2"
  >
    SOLVIS
  </text>
</svg> 